<svg width="58" height="71" viewBox="0 0 58 71" fill="none" xmlns="http://www.w3.org/2000/svg">
<path d="M14.2461 69.4496C12.8519 68.5201 11.6137 67.3755 10.5777 66.0584C9.44828 64.693 8.40142 63.2569 7.44008 61.7706C5.1825 58.4684 3.41451 54.8569 2.19103 51.0484C0.716583 46.6192 0 42.3787 0 38.2296C0 33.5998 1.00263 29.5598 2.9548 26.1686C4.41047 23.5115 6.54808 21.2904 9.14749 19.7341C11.6662 18.1718 14.559 17.3161 17.5224 17.257C18.5545 17.257 19.6751 17.4044 20.8546 17.6993C21.7098 17.9352 22.7419 18.3186 24.01 18.7904C25.6319 19.4097 26.5165 19.793 26.8114 19.8815C27.7551 20.2354 28.5513 20.3828 29.1705 20.3828C29.6424 20.3828 30.3206 20.2354 31.0726 19.9995C31.5002 19.852 32.3111 19.5866 33.4612 19.0853C34.5995 18.6724 35.5018 18.3186 36.2184 18.0532C37.3095 17.7288 38.3652 17.4339 39.3148 17.2865C40.4648 17.1095 41.6061 17.0506 42.7001 17.139C44.7938 17.2865 46.7106 17.7288 48.421 18.3776C51.4288 19.5866 53.8558 21.4739 55.6664 24.1574C54.8997 24.6292 54.192 25.1777 53.5285 25.7793C52.0924 27.0473 50.8745 28.5513 49.9013 30.2174C48.6367 32.4887 47.9823 35.0491 48.0022 37.6486C48.0465 40.8423 48.8574 43.6497 50.4793 46.0825C51.6605 47.8867 53.2003 49.4285 55.0029 50.612C55.9171 51.2313 56.7192 51.6589 57.48 51.939C57.1261 53.0448 56.7369 54.1212 56.2857 55.1828C55.2624 57.5626 54.0445 59.8421 52.5996 61.9948C51.3256 63.8526 50.323 65.2386 49.5622 66.1527C48.3767 67.5682 47.2326 68.6298 46.0825 69.3877C44.8145 70.2281 43.3253 70.6734 41.8007 70.6734C40.7686 70.7176 39.7365 70.5849 38.7515 70.2989C37.8963 70.0187 37.053 69.7032 36.2273 69.3464C35.3621 68.9505 34.4703 68.6155 33.5585 68.3438C32.438 68.0507 31.2841 67.905 30.126 67.9103C28.9464 67.9103 27.7964 68.0577 26.7053 68.3379C25.7911 68.5974 24.9064 68.9158 24.0306 69.2962C22.7921 69.8123 21.9811 70.1514 21.5093 70.2989C20.5587 70.5801 19.5793 70.7532 18.5899 70.8149C17.0564 70.8149 15.6292 70.3726 14.2078 69.4879L14.2461 69.4496ZM34.4579 15.0129C32.4527 16.0155 30.5477 16.4401 28.6397 16.2986C28.3448 14.3936 28.6397 12.4355 29.4359 10.2917C30.1437 8.46335 31.0873 6.81196 32.3848 5.33751C33.7413 3.80408 35.3632 2.53606 37.1916 1.6219C39.1378 0.619269 40.9956 0.0884671 42.765 0C43.0009 2.00525 42.765 3.98102 42.0278 6.10423C41.3491 7.99028 40.3516 9.7458 39.0788 11.2943C37.7961 12.8277 36.2037 14.0958 34.4019 15.0099L34.4579 15.0129Z" fill="#FB923C"/>
</svg>
