<svg width="58" height="58" viewBox="0 0 58 58" fill="none" xmlns="http://www.w3.org/2000/svg">
<path d="M31.8487 4.27508C31.8487 6.6126 29.9088 8.55015 27.5712 8.55015C26.4407 8.54014 25.3594 8.08644 24.5602 7.2868C23.761 6.48716 23.3079 5.40558 23.2986 4.27508C23.2986 1.94474 25.2457 0 27.5712 0C29.9088 0 31.8487 1.94714 31.8487 4.27508ZM27.5712 12.0421C25.0517 12.0421 23.1094 13.982 23.1094 16.5111C23.1094 19.0331 25.0493 20.9778 27.576 20.9778C30.098 20.9778 32.0427 19.0355 32.0427 16.5111C32.0427 13.9868 30.0668 12.0421 27.5521 12.0421H27.5712ZM27.5712 24.0865C25.0517 24.0865 22.913 26.2205 22.913 28.7448C22.913 31.2691 25.0541 33.4031 27.576 33.4031C30.098 33.4031 32.2367 31.2691 32.2367 28.7448C32.2367 26.2205 30.0956 24.0865 27.576 24.0865H27.5712ZM27.5712 36.3178C25.0517 36.3178 23.1094 38.2577 23.1094 40.7821C23.1094 43.3064 25.0493 45.2511 27.576 45.2511C28.1654 45.2605 28.7506 45.1513 29.297 44.93C29.8433 44.7087 30.3395 44.3798 30.7562 43.9629C31.1729 43.546 31.5015 43.0496 31.7225 42.5032C31.9435 41.9567 32.0524 41.3714 32.0427 40.7821C32.0427 38.4541 30.0668 36.3178 27.5521 36.3178H27.5712ZM27.5712 48.7502C26.4412 48.7602 25.3602 49.2136 24.5611 50.0127C23.7619 50.8118 23.3086 51.8928 23.2986 53.0229C23.3104 54.1517 23.7646 55.2309 24.5636 56.0285C25.3625 56.826 26.4424 57.2784 27.5712 57.2884C29.9112 57.2884 31.8487 55.3508 31.8487 53.0157C31.8487 50.6854 29.9088 48.7502 27.5712 48.7502ZM39.4217 11.4553C36.701 11.4553 34.373 13.7952 34.373 16.5111C34.373 19.2271 36.7034 21.5574 39.4217 21.5574C42.14 21.5574 44.4656 19.2223 44.4656 16.5111C44.4656 13.7928 42.1376 11.4601 39.4217 11.4601V11.4553ZM39.4217 23.5021C36.5094 23.5021 34.1767 25.8325 34.1767 28.7472C34.1744 29.4363 34.3086 30.119 34.5715 30.7559C34.8344 31.3929 35.2208 31.9715 35.7084 32.4584C36.196 32.9453 36.7751 33.3309 37.4124 33.5929C38.0497 33.8549 38.7326 33.9882 39.4217 33.985C40.111 33.9879 40.794 33.8542 41.4313 33.5918C42.0687 33.3293 42.6478 32.9433 43.1352 32.4559C43.6226 31.9685 44.0086 31.3894 44.2711 30.752C44.5335 30.1147 44.6672 29.4317 44.6644 28.7424C44.6669 28.0533 44.533 27.3706 44.2704 26.7335C44.0078 26.0964 43.6217 25.5176 43.1343 25.0305C42.647 24.5433 42.068 24.1575 41.4308 23.8952C40.7936 23.6329 40.1108 23.4993 39.4217 23.5021ZM39.4217 35.7358C36.701 35.7358 34.373 38.0733 34.373 40.7821C34.373 43.5004 36.7034 45.8331 39.4217 45.8331C42.14 45.8331 44.4656 43.4956 44.4656 40.7821C44.4656 38.0685 42.14 35.7358 39.4217 35.7358ZM51.6506 22.9154C50.1073 22.9217 48.6293 23.5382 47.5389 24.6303C46.4486 25.7225 45.8345 27.2015 45.8307 28.7448C45.8307 31.8511 48.3479 34.5718 51.6506 34.5718C54.9581 34.5718 57.48 32.0212 57.48 28.7184C57.2836 25.4086 54.7617 22.8962 51.6506 22.8962V22.9154ZM15.534 12.6264C13.3976 12.6264 11.6541 14.3748 11.6541 16.5135C11.6541 18.6475 13.4 20.3934 15.534 20.3934C17.6727 20.3934 19.4115 18.6475 19.4115 16.5135C19.4115 14.3748 17.6703 12.6336 15.534 12.6336V12.6264ZM15.534 24.6661C13.2036 24.6661 11.4553 26.4121 11.4553 28.7448C11.4553 31.0799 13.1821 32.8235 15.5148 32.8235C17.8475 32.8235 19.5743 31.0751 19.5743 28.7448C19.5743 26.4097 17.814 24.6661 15.4789 24.6661H15.534ZM15.534 36.8974C13.3976 36.8974 11.6541 38.6481 11.6541 40.7773C11.6541 42.9208 13.4 44.6644 15.534 44.6644C17.6727 44.6644 19.4115 42.904 19.4115 40.7485C19.4115 38.593 17.6703 36.8686 15.534 36.8686V36.8974ZM3.49909 25.2505C1.55196 25.2505 0 26.7977 0 28.7448C0 30.6847 1.55196 32.2391 3.4967 32.2391C5.43665 32.2391 6.991 30.6871 6.991 28.7448C6.991 26.8024 5.43904 25.2505 3.49909 25.2505Z" fill="#FB923C"/>
</svg>
