<svg width="58" height="49" viewBox="0 0 58 49" fill="none" xmlns="http://www.w3.org/2000/svg">
<path d="M14.37 0C6.43059 0 1.39097e-05 6.41381 1.39097e-05 14.3269C-0.00261754 16.21 0.36814 18.075 1.09084 19.8139C1.81354 21.5528 2.87385 23.1312 4.21043 24.4577L5.50373 25.7534L8.38731 28.6442L14.6502 22.41L11.7643 19.5121L10.4686 18.2116C9.95526 17.7035 9.54819 17.0984 9.27105 16.4315C8.99391 15.7645 8.85226 15.0491 8.85433 14.3269C8.85433 13.048 9.2998 11.8744 10.0351 10.9404C10.5175 10.3241 11.1257 9.81768 11.8192 9.45488C12.5127 9.09209 13.2755 8.88123 14.0568 8.83636C14.8382 8.79149 15.6202 8.91364 16.3506 9.19467C17.0811 9.47569 17.7432 9.90915 18.293 10.4662L19.5815 11.7163L22.4867 14.5903C17.7925 19.2845 13.0911 23.9644 8.38731 28.6442L11.7475 32.014L14.643 34.8952L22.4747 42.7364L22.4651 42.7436L28.74 48.6664L35.0053 42.7388H35.0029L34.9982 42.734L49.0927 28.6442L53.2696 24.4601C56.1915 21.5502 57.8608 17.0596 57.4058 12.5259C56.716 5.66418 51.0303 0.51253 44.1279 0.0407149C42.0758 -0.106831 40.0159 0.188015 38.0875 0.905312C36.1591 1.62261 34.4073 2.74563 32.9504 4.19844L28.7496 8.37292L25.8445 5.47497L24.5272 4.19844C23.1926 2.86631 21.6087 1.81012 19.866 1.09016C18.1232 0.370197 16.2557 -0.00182131 14.37 0ZM43.0142 8.83276C44.3533 8.80823 45.6556 9.27177 46.678 10.1369C47.7004 11.0019 48.3731 12.2095 48.5706 13.5342C48.6951 14.3848 48.6176 15.2529 48.3442 16.068C48.0708 16.8831 47.6093 17.6224 46.9971 18.226L42.8202 22.41L28.7328 36.483L20.8988 28.6682L28.7472 20.8533L39.2086 10.4446C40.2288 9.42672 41.5796 8.85671 43.0142 8.83276Z" fill="#FB923C"/>
</svg>
